<svg xmlns="http://www.w3.org/2000/svg" version="1" width="512" height="512"><path d="M477 127c-22-28-54-50-93-66s-82-24-128-24c-47 0-89 8-129 24-39 16-70 38-93 66a139 139 0 0 0-8 172c17 25 41 46 71 63a182 182 0 0 1-34 65 4550 4550 0 0 0-21 23l-2 2-1 3-2 3v6l4 8c3 2 5 3 8 3h2c12-1 23-4 32-6 50-13 94-36 131-69l42 2c46 0 89-8 128-24 39-17 71-39 93-67 23-28 35-59 35-92s-12-63-35-92zm-32 165c-20 23-46 40-80 54a296 296 0 0 1-146 17l-17-2-12 11c-23 21-49 37-78 49 8-15 15-32 20-49l7-27-25-15c-24-14-43-30-57-50-14-19-20-39-20-61 0-26 9-50 29-73 20-22 47-40 81-53s70-20 109-20 75 7 109 20 60 31 80 53c20 23 30 47 30 73s-10 51-30 73z" fill="#FFF"/></svg>