<svg xmlns="http://www.w3.org/2000/svg" version="1" width="512" height="512"><path d="M475 72c-24-24-57-35-100-35-12 0-24 2-36 6s-24 9-34 16a366 366 0 0 0-49 39 264 264 0 0 0-83-55c-13-4-25-6-37-6-42 0-76 11-100 35S0 128 0 170a173 173 0 0 0 41 102 295 295 0 0 0 24 26l178 172c4 3 8 5 13 5s9-2 12-5l178-171c44-44 66-87 66-129s-12-74-37-98zm-54 200L256 431 90 272c-36-36-53-70-53-102 0-15 2-29 6-41 4-11 9-21 15-28a103 103 0 0 1 50-26l28-2c10 0 21 3 32 7 12 5 22 11 32 19a334 334 0 0 1 42 38c3 4 8 6 14 6s10-2 14-6a221 221 0 0 1 42-38c9-8 20-14 31-19 12-4 22-7 32-7l28 2 27 9c9 5 17 10 23 17 7 7 12 17 16 28 4 12 6 26 6 41 0 32-18 66-54 102z" fill="#FFF"/></svg>